name rise30.6535peak61.5555fall82.9339.mot
datacolumns 19
datarows 21
range 18.54825900000000 18.58159400000000
endheader
time	ground_force1_vx	ground_force1_vy	ground_force1_vz	ground_force1_px	ground_force1_py	ground_force1_pz	ground_force2_vx	ground_force2_vy	ground_force2_vz	ground_force2_px	ground_force2_py	ground_force2_pz	ground_torque1_x	ground_torque1_y	ground_torque1_z	ground_torque2_x	ground_torque2_y	ground_torque2_z	
18.54825900000000	2.91348400000000	708.92965200000003	40.79625400000000	0.24158800000000	0.00000000000000	0.12832900000000	0.00000000000000	0.00000000000000	0.00000000000000	0.00000000000000	0.00000000000000	0.00000000000000	0.00000000000000	19.29908700000000	0.00000000000000	0.00000000000000	0.00000000000000	0.00000000000000	
18.54992300000000	2.33819000000000	709.45580299999995	40.79583300000000	0.24066000000000	0.00000000000000	0.12834700000000	0.00000000000000	0.00000000000000	0.00000000000000	0.00000000000000	0.00000000000000	0.00000000000000	0.00000000000000	19.38026800000000	0.00000000000000	0.00000000000000	0.00000000000000	0.00000000000000	
18.55160200000000	1.75413600000000	710.01854100000003	40.79822000000000	0.23970400000000	0.00000000000000	0.12836700000000	0.00000000000000	0.00000000000000	0.00000000000000	0.00000000000000	0.00000000000000	0.00000000000000	0.00000000000000	19.46431300000000	0.00000000000000	0.00000000000000	0.00000000000000	0.00000000000000	
18.55325900000000	1.16137500000000	710.61855100000002	40.80342500000000	0.23872100000000	0.00000000000000	0.12839000000000	0.00000000000000	0.00000000000000	0.00000000000000	0.00000000000000	0.00000000000000	0.00000000000000	0.00000000000000	19.55115900000000	0.00000000000000	0.00000000000000	0.00000000000000	0.00000000000000	
18.55492600000000	0.55999200000000	711.25650199999995	40.81146100000000	0.23770900000000	0.00000000000000	0.12841400000000	0.00000000000000	0.00000000000000	0.00000000000000	0.00000000000000	0.00000000000000	0.00000000000000	0.00000000000000	19.64074500000000	0.00000000000000	0.00000000000000	0.00000000000000	0.00000000000000	
18.55659300000000	-0.04989200000000	711.93304100000000	40.82234600000000	0.23667000000000	0.00000000000000	0.12844000000000	0.00000000000000	0.00000000000000	0.00000000000000	0.00000000000000	0.00000000000000	0.00000000000000	0.00000000000000	19.73301000000000	0.00000000000000	0.00000000000000	0.00000000000000	0.00000000000000	
18.55825500000000	-0.66812600000000	712.64878899999997	40.83610200000000	0.23560300000000	0.00000000000000	0.12846900000000	0.00000000000000	0.00000000000000	0.00000000000000	0.00000000000000	0.00000000000000	0.00000000000000	0.00000000000000	19.82789600000000	0.00000000000000	0.00000000000000	0.00000000000000	0.00000000000000	
18.55992600000000	-1.29452500000000	713.40433700000006	40.85275400000000	0.23450900000000	0.00000000000000	0.12850000000000	0.00000000000000	0.00000000000000	0.00000000000000	0.00000000000000	0.00000000000000	0.00000000000000	0.00000000000000	19.92534300000000	0.00000000000000	0.00000000000000	0.00000000000000	0.00000000000000	
18.56160300000000	-1.92887600000000	714.20023200000003	40.87232800000000	0.23338900000000	0.00000000000000	0.12853300000000	0.00000000000000	0.00000000000000	0.00000000000000	0.00000000000000	0.00000000000000	0.00000000000000	0.00000000000000	20.02529500000000	0.00000000000000	0.00000000000000	0.00000000000000	0.00000000000000	
18.56325700000000	-2.57093400000000	715.03697899999997	40.89485600000000	0.23224300000000	0.00000000000000	0.12856700000000	0.00000000000000	0.00000000000000	0.00000000000000	0.00000000000000	0.00000000000000	0.00000000000000	0.00000000000000	20.12769400000000	0.00000000000000	0.00000000000000	0.00000000000000	0.00000000000000	
18.56492400000000	-3.22042800000000	715.91503399999999	40.92036800000000	0.23107300000000	0.00000000000000	0.12860400000000	0.00000000000000	0.00000000000000	0.00000000000000	0.00000000000000	0.00000000000000	0.00000000000000	0.00000000000000	20.23248500000000	0.00000000000000	0.00000000000000	0.00000000000000	0.00000000000000	
18.56659300000000	-3.87706000000000	716.83479299999999	40.94889800000000	0.22987900000000	0.00000000000000	0.12864300000000	0.00000000000000	0.00000000000000	0.00000000000000	0.00000000000000	0.00000000000000	0.00000000000000	0.00000000000000	20.33961200000000	0.00000000000000	0.00000000000000	0.00000000000000	0.00000000000000	
18.56825500000000	-4.54050400000000	717.79659500000002	40.98048200000000	0.22866300000000	0.00000000000000	0.12868400000000	0.00000000000000	0.00000000000000	0.00000000000000	0.00000000000000	0.00000000000000	0.00000000000000	0.00000000000000	20.44901900000000	0.00000000000000	0.00000000000000	0.00000000000000	0.00000000000000	
18.56992200000000	-5.21041500000000	718.80070799999999	41.01515300000000	0.22742700000000	0.00000000000000	0.12872600000000	0.00000000000000	0.00000000000000	0.00000000000000	0.00000000000000	0.00000000000000	0.00000000000000	0.00000000000000	20.56065000000000	0.00000000000000	0.00000000000000	0.00000000000000	0.00000000000000	
18.57158900000000	-5.88642200000000	719.84733200000005	41.05294800000000	0.22617200000000	0.00000000000000	0.12877000000000	0.00000000000000	0.00000000000000	0.00000000000000	0.00000000000000	0.00000000000000	0.00000000000000	0.00000000000000	20.67445000000000	0.00000000000000	0.00000000000000	0.00000000000000	0.00000000000000	
18.57325400000000	-6.56813600000000	720.93659100000002	41.09390400000000	0.22489900000000	0.00000000000000	0.12881500000000	0.00000000000000	0.00000000000000	0.00000000000000	0.00000000000000	0.00000000000000	0.00000000000000	0.00000000000000	20.79036100000000	0.00000000000000	0.00000000000000	0.00000000000000	0.00000000000000	
18.57492900000000	-7.25514700000000	722.06852900000001	41.13805600000000	0.22361200000000	0.00000000000000	0.12886200000000	0.00000000000000	0.00000000000000	0.00000000000000	0.00000000000000	0.00000000000000	0.00000000000000	0.00000000000000	20.90832500000000	0.00000000000000	0.00000000000000	0.00000000000000	0.00000000000000	
18.57658900000000	-7.94703200000000	723.24310600000001	41.18544000000000	0.22231100000000	0.00000000000000	0.12891100000000	0.00000000000000	0.00000000000000	0.00000000000000	0.00000000000000	0.00000000000000	0.00000000000000	0.00000000000000	21.02828600000000	0.00000000000000	0.00000000000000	0.00000000000000	0.00000000000000	
18.57825900000000	-8.64334900000000	724.46019300000000	41.23609100000000	0.22099900000000	0.00000000000000	0.12896000000000	0.00000000000000	0.00000000000000	0.00000000000000	0.00000000000000	0.00000000000000	0.00000000000000	0.00000000000000	21.15018200000000	0.00000000000000	0.00000000000000	0.00000000000000	0.00000000000000	
18.57992600000000	-9.34364500000000	725.71957599999996	41.29004300000000	0.21967700000000	0.00000000000000	0.12901100000000	0.00000000000000	0.00000000000000	0.00000000000000	0.00000000000000	0.00000000000000	0.00000000000000	0.00000000000000	21.27395300000000	0.00000000000000	0.00000000000000	0.00000000000000	0.00000000000000	
18.58159400000000	-10.04745500000000	727.02094199999999	41.34732900000000	0.21834900000000	0.00000000000000	0.12906200000000	0.00000000000000	0.00000000000000	0.00000000000000	0.00000000000000	0.00000000000000	0.00000000000000	0.00000000000000	21.39953600000000	0.00000000000000	0.00000000000000	0.00000000000000	0.00000000000000	
